<?xml version="1.0" encoding="utf-8"?>
<!-- Generator: Adobe Illustrator 23.0.1, SVG Export Plug-In . SVG Version: 6.00 Build 0)  -->
<svg version="1.1" id="Layer_1" xmlns="http://www.w3.org/2000/svg" xmlns:xlink="http://www.w3.org/1999/xlink" x="0px" y="0px"
	 viewBox="0 0 705 290.9" style="enable-background:new 0 0 705 290.9;" xml:space="preserve">
<style type="text/css">
	.st0{fill:#09B5C9;}
	.st1{font-family:'ArialMT';}
	.st2{font-size:96.2367px;}
	.st3{fill:#0C72BA;}
	.st4{fill:url(#SVGID_1_);}
	.st5{opacity:0.3;}
	.st6{fill:#E39F35;}
	.st7{fill:#FFFFFF;}
	.st8{fill:url(#SVGID_2_);}
	.st9{fill:url(#SVGID_3_);}
</style>
<text transform="matrix(1 0 0 1 229.5851 130.0224)" class="st0 st1 st2">Haemat </text>
<text transform="matrix(1 0 0 1 229.5851 232.1824)" class="st3 st1 st2">Task Force</text>
<g>
	
		<radialGradient id="SVGID_1_" cx="100.6902" cy="144.9535" r="115.2012" gradientTransform="matrix(1 0 0 -1 0 292)" gradientUnits="userSpaceOnUse">
		<stop  offset="0" style="stop-color:#91ADDA"/>
		<stop  offset="0.75" style="stop-color:#0C72BA"/>
	</radialGradient>
	<path class="st4" d="M148.6,52.4c3.6,16-6.4,31.8-22.4,35.4c-16,3.6-31.8-6.4-35.4-22.4s6.4-31.8,22.4-35.4
		C129.1,26.4,145,36.4,148.6,52.4z M164.4,12.5c16.1,44.4,9,79.8-15.1,91c-26.6,12.3-140.2-9-140.2-9c22.6,4.3,40.9,11.4,55.8,20.2
		c-0.1,0-0.2,0-0.3,0.1c0.1,0,0.2,0,0.3,0c50.3,29.8,61.4,79.3,63.1,109.9c0.1,11.5-2.1,34.8-20.6,40.6
		c-11.6,3.2-36.2,6.8-58.3-10.3c0,0,33.7,14.1,59.4,2.9c-1.6-1.9-3.2-3.9-4.7-5.9c-5.8-7.3-12.8-15.9-21.9-18.5
		c-12.5-3.5-37.2,1.7-49.8-0.1c-8.3-1.1-21-5.7-23.2-14.9c9.7,43.2,52.5,70.9,95.7,61.2c4.4-1,8.7-2.3,12.7-4
		c14.7-5.8,27.9-15.5,37.7-29.2C233.6,144.7,164.4,12.5,164.4,12.5z"/>
	<g class="st5">
		<path class="st6" d="M149.3,103.4c-26.6,12.3-140.2-9-140.2-9c22.6,4.3,40.9,11.4,55.8,20.2c-0.1,0-0.2,0-0.3,0.1
			c0.1,0,0.2,0,0.3,0c19.5,11.5,33,26,42.5,41.2c73.8,33.5,78.1-49.3,75.5-93.2c-8.1-30.3-18.6-50.2-18.6-50.2
			C180.5,56.9,173.4,92.3,149.3,103.4z"/>
		<path class="st7" d="M126.2,87.8c16-3.6,26-19.4,22.4-35.4s-19.4-26-35.4-22.4s-26,19.4-22.4,35.4S110.2,91.3,126.2,87.8z"/>
	</g>
</g>
<g>
	
		<radialGradient id="SVGID_2_" cx="74.255" cy="103.59" r="27.3725" gradientTransform="matrix(1 0 0 -1 0 292)" gradientUnits="userSpaceOnUse">
		<stop  offset="0" style="stop-color:#B4E2EA"/>
		<stop  offset="0.25" style="stop-color:#A1DBE6"/>
		<stop  offset="0.75" style="stop-color:#09B5C9"/>
	</radialGradient>
	<path class="st8" d="M96.9,176.8h-11v-11c0-2.6-2.1-4.7-4.7-4.7H67.3c-2.6,0-4.7,2.1-4.7,4.7v11h-11c-2.6,0-4.7,2.1-4.7,4.7v13.8
		c0,2.6,2.1,4.7,4.7,4.7h11v11c0,2.6,2.1,4.7,4.7,4.7h13.8c2.6,0,4.7-2.1,4.7-4.7v-11h11c2.6,0,4.7-2.1,4.7-4.7v-13.8
		C101.6,178.9,99.5,176.8,96.9,176.8z"/>
	
		<radialGradient id="SVGID_3_" cx="36.86" cy="145.655" r="16.3275" gradientTransform="matrix(1 0 0 -1 0 292)" gradientUnits="userSpaceOnUse">
		<stop  offset="0" style="stop-color:#B4E2EA"/>
		<stop  offset="0.25" style="stop-color:#A1DBE6"/>
		<stop  offset="0.75" style="stop-color:#09B5C9"/>
	</radialGradient>
	<path class="st9" d="M50.4,139.4h-6.6v-6.6c0-1.6-1.3-2.8-2.8-2.8h-8.2c-1.6,0-2.8,1.3-2.8,2.8v6.6h-6.6c-1.6,0-2.8,1.3-2.8,2.8
		v8.2c0,1.6,1.3,2.8,2.8,2.8h6.6v6.6c0,1.6,1.3,2.8,2.8,2.8H41c1.6,0,2.8-1.3,2.8-2.8v-6.6h6.6c1.6,0,2.8-1.3,2.8-2.8v-8.2
		C53.2,140.7,51.9,139.4,50.4,139.4z"/>
</g>
</svg>
